<svg data-v-0dd9719b="" version="1.0" xmlns="http://www.w3.org/2000/svg" xmlns:xlink="http://www.w3.org/1999/xlink" width="100%" height="100%" viewBox="0 0 340.000000 250.000000" preserveAspectRatio="xMidYMid meet" color-interpolation-filters="sRGB" style="margin: auto;"> <rect data-v-0dd9719b="" x="0" y="0" width="100%" height="100%" fill="#fff" fill-opacity="1" class="background"></rect>  <g data-v-0dd9719b="" fill="#333" class="icon-text-wrapper icon-svg-group iconsvg" transform="translate(82.20487213134766,92.77000808731523)"><g class="iconsvg-imagesvg" transform="translate(0,0)"><g><rect fill="#333" fill-opacity="0" stroke-width="2" x="0" y="0" width="60" height="64.45998646340284" class="image-rect"></rect> <svg x="0" y="0" width="60" height="64.45998646340284" filtersec="colorsb8691275916" class="image-svg-svg primary" style="overflow: visible;"><svg xmlns="http://www.w3.org/2000/svg" viewBox="-0.04370441287755966 0.004579527303576469 177.93359375 191.16014099121094"><path d="M96.87 135.25v53.43c0 2.44 0 2.44 2.5 2.44h13.9c2.53 0 2.54 0 2.54-2.53v-88.27-5.41c0-1.16.34-1.44 1.36-.69 2.13 1.55 4.32 3 6.47 4.58L176 136.23c.43.31.87.86 1.41.63s.29-1 .29-1.45v-19.32a2.89 2.89 0 0 0-1.4-2.68c-3-2-5.86-4.2-8.8-6.29q-38.43-27.41-76.88-54.84a2.47 2.47 0 0 0-3.44 0Q58.11 73.13 29 93.86c-9.1 6.49-18.18 13-27.31 19.46a3.21 3.21 0 0 0-1.53 3c.07 6.38 0 12.76 0 19.14 0 .49-.3 1.19.31 1.43s1-.34 1.41-.64l2.79-2q27.78-19.86 55.59-39.69c.45-.33.9-1.08 1.5-.76s.28 1.1.28 1.67v93.69c0 1.56.39 2.06 2 2 4.75-.11 9.51 0 14.26 0 2.69 0 2.69 0 2.69-2.62V89.21v-7.94A2.37 2.37 0 0 1 82.08 79c1.93-1.32 3.83-2.7 5.71-4.11a1.64 1.64 0 0 1 2.26 0c1.67 1.26 3.34 2.56 5.12 3.67A3.51 3.51 0 0 1 96.9 82c-.05 17.75-.03 35.5-.03 53.25z" fill="#00bfe9"></path><path d="M.14 76.43v24c0 .51-.28 1.18.27 1.49s1-.3 1.38-.59c5.3-3.75 10.56-7.54 15.88-11.26A2.87 2.87 0 0 0 19 87.35V63.16a2.19 2.19 0 0 1 1-2.23Q53.85 41.49 87.62 22a2.32 2.32 0 0 1 2.65 0q33.53 19.41 67.09 38.73a2.54 2.54 0 0 1 1.49 2.55V87.1a3.37 3.37 0 0 0 1.56 3.16c5.23 3.63 10.39 7.36 15.59 11 .43.3.82.93 1.38.68s.35-1.07.35-1.62V52.67a2.68 2.68 0 0 0-1.58-2.67Q133.22 25.28 90.36.43a2.73 2.73 0 0 0-3.14.15Q44.41 25.35 1.57 50a2.56 2.56 0 0 0-1.46 2.61c.05 7.94.03 15.88.03 23.82zM123.77 173.13V182c0 2.06.16 2.13 2 1.08l50.1-28.9c2.59-1.5 2.71-4.21.24-6-4.54-3.26-9.07-6.53-13.62-9.77-1.07-.75-2.33-2.43-3.21-2-1.13.6-.44 2.53-.38 3.86a3.12 3.12 0 0 1-1.9 3.23c-10.56 6-21 12.07-31.59 18.07a2.81 2.81 0 0 0-1.65 2.86c.07 2.92.01 5.81.01 8.7zM54 173.2c0-2.83-.12-5.66 0-8.48a3.25 3.25 0 0 0-2-3.38c-9.71-5.51-19.3-11.24-29.1-16.57-3.06-1.66-4.6-3.49-4-7 .09-.46.32-1.17-.3-1.46s-.87.32-1.24.58q-8.06 5.77-16.08 11.59a3.28 3.28 0 0 0 .4 5.52l10.14 5.85 40.25 23.21c1.74 1 1.87.93 1.88-1 .05-2.97.05-5.91.05-8.86z" fill="#243269"></path></svg></svg> <!----></g></g> <g transform="translate(67,11.628490447998047)"><g data-gra="path-name" fill-rule="" class="tp-name iconsvg-namesvg"><g transform="scale(1)"><g><path d="M11.22-4.25L11.22-4.25Q11.22-3.21 10.88-2.37 10.54-1.53 9.91-0.95 9.28-0.36 8.39-0.04 7.5 0.28 6.39 0.28L6.39 0.28Q4.63 0.28 3.25-0.29 1.87-0.85 0.98-1.57L0.98-1.57 2.74-3.33Q3.44-2.7 4.31-2.36L4.31-2.36Q4.84-2.15 5.31-2.08 5.78-2.02 6.08-2.02L6.08-2.02Q6.63-2.02 7.08-2.16 7.54-2.29 7.88-2.53L7.88-2.53Q8.6-3.06 8.6-3.93L8.6-3.93Q8.6-4.46 8.22-4.89L8.22-4.89Q7.92-5.23 7.46-5.44L7.46-5.44Q7.07-5.65 6.65-5.78 6.22-5.91 5.88-6.01L5.88-6.01Q5.78-6.05 5.69-6.06 5.61-6.08 5.54-6.12L5.54-6.12Q5.5-6.12 5.42-6.16L5.42-6.16Q4.97-6.29 4.13-6.61 3.29-6.92 2.46-7.48L2.46-7.48Q0.53-8.77 0.53-10.66L0.53-10.66Q0.53-11.92 0.97-12.78 1.4-13.64 2.1-14.18 2.8-14.72 3.66-14.95 4.52-15.19 5.35-15.19L5.35-15.19Q6.88-15.19 7.92-14.83 8.96-14.47 9.58-14.1L9.58-14.1Q9.9-13.91 10.12-13.73 10.34-13.55 10.51-13.4L10.51-13.4 8.71-11.58Q8.14-12.15 7.54-12.45L7.54-12.45Q6.65-12.87 5.67-12.87L5.67-12.87Q5.25-12.87 4.82-12.77 4.4-12.66 4.08-12.49L4.08-12.49Q3.14-11.92 3.14-10.98L3.14-10.98Q3.14-10.41 3.53-10L3.53-10Q3.8-9.69 4.29-9.43L4.29-9.43Q4.69-9.22 5.14-9.09 5.59-8.96 5.97-8.86L5.97-8.86 6.22-8.79Q6.33-8.75 6.63-8.67 6.92-8.58 7.33-8.41 7.73-8.24 8.21-8.01 8.69-7.77 9.16-7.46L9.16-7.46Q11.22-6.1 11.22-4.25ZM20.8-14.87L20.8-14.87 27.51 0 24.7 0 23.56-2.55 23.56-2.55 22.41-5.1 22.41-5.1 19.39-11.77 16.38-5.1 20.24-5.1 21.39-2.55 15.23-2.55 14.08 0 11.28 0 17.99-14.87 20.8-14.87ZM36.24-14.87L36.24-14.87 36.24-12.32 31.88-12.32 31.88 0 29.33 0 29.33-12.32 24.96-12.32 24.96-14.87 29.33-14.87 31.88-14.87 36.24-14.87ZM47.24-14.87L49.79-14.87 49.79-5.95Q49.79-4.65 49.3-3.52 48.81-2.38 47.96-1.53 47.11-0.68 45.98-0.19 44.84 0.3 43.55 0.3L43.55 0.3Q42.25 0.3 41.11-0.19 39.98-0.68 39.13-1.53 38.28-2.38 37.79-3.52 37.3-4.65 37.3-5.95L37.3-5.95 37.3-14.87 39.85-14.87 39.85-5.95Q39.85-5.2 40.13-4.54 40.4-3.87 40.93-3.33L40.93-3.33Q41.46-2.8 42.13-2.53 42.8-2.25 43.55-2.25L43.55-2.25Q45.08-2.25 46.16-3.33L46.16-3.33Q46.69-3.87 46.97-4.54 47.24-5.2 47.24-5.95L47.24-5.95 47.24-14.87ZM60.96-14.87L60.96-14.87Q62.07-14.87 63.05-14.44 64.02-14.02 64.75-13.3 65.47-12.58 65.89-11.61 66.32-10.64 66.32-9.54L66.32-9.54Q66.32-8.43 65.89-7.46 65.47-6.48 64.75-5.76 64.02-5.03 63.05-4.61 62.07-4.18 60.96-4.18L60.96-4.18 58.84-4.18 59.88-6.73 60.96-6.73Q62.11-6.73 62.94-7.56L62.94-7.56Q63.77-8.39 63.77-9.54L63.77-9.54Q63.77-10.71 62.94-11.49L62.94-11.49Q62.11-12.32 60.96-12.32L60.96-12.32 57.97-12.32 57.97 0 55.42 0 55.42-14.87 60.96-14.87ZM70.25-14.85L70.25-14.85 70.25 0 67.7 0 67.7-14.85 70.25-14.85ZM80.57-14.89L80.57-14.89 83.12-14.89 83.12-0.02 80.36-0.02 74.39-10.2 74.39-0.02 71.84-0.02 71.84-14.89 74.6-14.89 80.57-4.72 80.57-14.89ZM95.57-14.87L95.57-14.87 95.57-12.32 91.21-12.32 91.21 0 88.66 0 88.66-12.32 84.29-12.32 84.29-14.87 88.66-14.87 91.21-14.87 95.57-14.87ZM106.57-14.87L109.12-14.87 109.12-5.95Q109.12-4.65 108.63-3.52 108.14-2.38 107.29-1.53 106.44-0.68 105.31-0.19 104.17 0.3 102.87 0.3L102.87 0.3Q101.58 0.3 100.44-0.19 99.31-0.68 98.46-1.53 97.61-2.38 97.12-3.52 96.63-4.65 96.63-5.95L96.63-5.95 96.63-14.87 99.18-14.87 99.18-5.95Q99.18-5.2 99.45-4.54 99.73-3.87 100.26-3.33L100.26-3.33Q100.79-2.8 101.46-2.53 102.13-2.25 102.87-2.25L102.87-2.25Q104.4-2.25 105.49-3.33L105.49-3.33Q106.02-3.87 106.29-4.54 106.57-5.2 106.57-5.95L106.57-5.95 106.57-14.87Z" transform="translate(-0.5299999713897705, 15.1899995803833)"></path></g> <!----> <!----> <!----> <!----> <!----> <!----> <g data-gra="path-name-1" fill="#333" transform="translate(0,18.49000072479248)"><g transform="scale(1.005)"><path d="M10.09-21.73L10.09-21.73Q12.33-21.73 14.31-20.88 16.3-20.03 17.78-18.55 19.25-17.08 20.1-15.09 20.96-13.1 20.96-10.87L20.96-10.87Q20.96-8.63 20.1-6.64 19.25-4.66 17.78-3.18 16.3-1.71 14.31-0.85 12.33 0 10.09 0L10.09 0 6.24 0 7.76-3.73 10.09-3.73Q11.52-3.73 12.82-4.27 14.13-4.81 15.15-5.81L15.15-5.81Q16.15-6.83 16.69-8.12 17.23-9.41 17.23-10.87L17.23-10.87Q17.23-12.3 16.69-13.6 16.15-14.9 15.15-15.93L15.15-15.93Q14.13-16.92 12.82-17.46 11.52-18.01 10.09-18.01L10.09-18.01 4.81-18.01 4.81-9 4.81-3.73 4.81 0 1.09 0 1.09-21.73 10.09-21.73ZM26.7-21.7L26.7-21.7 26.7 0 22.98 0 22.98-21.7 26.7-21.7ZM51.17-12.76L51.17-12.76Q51.23-12.3 51.28-11.83 51.32-11.36 51.32-10.9L51.32-10.9Q51.32-8.57 50.44-6.5 49.55-4.44 48.02-2.9 46.48-1.37 44.41-0.48 42.35 0.4 40.02 0.4L40.02 0.4Q37.69 0.4 35.63-0.48 33.56-1.37 32.03-2.9 30.49-4.44 29.6-6.5 28.72-8.57 28.72-10.9L28.72-10.9Q28.72-13.23 29.6-15.29 30.49-17.36 32.03-18.89 33.56-20.43 35.63-21.31 37.69-22.2 40.02-22.2L40.02-22.2Q42.38-22.2 44.43-21.31 46.48-20.43 48-18.88L48-18.88 45.39-16.24Q44.31-17.33 42.92-17.9 41.54-18.47 40.02-18.47L40.02-18.47Q38.5-18.47 37.13-17.9 35.77-17.33 34.68-16.24L34.68-16.24Q33.59-15.15 33.02-13.79 32.45-12.42 32.45-10.9L32.45-10.9Q32.45-9.38 33.02-7.99 33.59-6.61 34.68-5.53L34.68-5.53Q35.77-4.44 37.13-3.88 38.5-3.32 40.02-3.32L40.02-3.32Q41.54-3.32 42.92-3.88 44.31-4.44 45.39-5.53L45.39-5.53Q46.85-7.05 47.38-9.04L47.38-9.04 37.32-9.04 38.25-12.76 51.17-12.76ZM57.07-21.7L57.07-21.7 57.07 0 53.34 0 53.34-21.7 57.07-21.7ZM75.42-21.73L75.42-21.73 75.42-18.01 69.05-18.01 69.05 0 65.33 0 65.33-18.01 58.93-18.01 58.93-21.73 65.33-21.73 69.05-21.73 75.42-21.73ZM85.66-21.73L85.66-21.73 95.47 0 91.38 0 89.7-3.73 89.7-3.73 88.02-7.45 88.02-7.45 83.61-17.2 79.2-7.45 84.86-7.45 86.53-3.73 77.53-3.73 75.85 0 71.75 0 81.56-21.73 85.66-21.73ZM100.6-3.73L100.6-3.73 109.14-3.73 109.14 0 100.6 0 96.87 0 96.87-3.73 96.87-21.7 100.6-21.7 100.6-3.73Z" transform="translate(-1.090000033378601, 22.200000762939453)"></path></g></g></g></g> <!----></g></g><defs v-gra="od"></defs></svg>